HIERARCHY
ROOT hip
{
	OFFSET 0.000000 0.000000 0.000000 
	CHANNELS 6 Xposition Yposition Zposition Xrotation Zrotation Yrotation
	JOINT abdomen
	{
		OFFSET 0.000000 3.402643 0.000000 
		CHANNELS 3 Xrotation Zrotation Yrotation
		JOINT chest
		{
			OFFSET 0.000000 8.438565 -0.680529 
			CHANNELS 3 Xrotation Zrotation Yrotation
			JOINT neck
			{
				OFFSET 0.000000 10.207942 -0.272212 
				CHANNELS 3 Xrotation Zrotation Yrotation
				JOINT head
				{
					OFFSET 0.000000 3.130431 0.000000 
					CHANNELS 3 Xrotation Zrotation Yrotation
					End Site
					{
						OFFSET 0.000000 3.130435 0.000000 
					}
				}
			}
			JOINT lCollar
			{
				OFFSET 3.470700 6.669187 -0.816635 
				CHANNELS 3 Yrotation Zrotation Xrotation
				JOINT lShldr
				{
					OFFSET 3.198488 0.000000 0.000000 
					CHANNELS 3 Zrotation Yrotation Xrotation
					JOINT lForeArm
					{
						OFFSET 10.139888 0.000000 0.000000 
						CHANNELS 3 Yrotation Zrotation Xrotation
						JOINT lHand
						{
							OFFSET 8.370511 0.000000 0.000000 
							CHANNELS 3 Zrotation Yrotation Xrotation
							End Site
							{
								OFFSET 4.083176 0.000000 0.000000 
							}
						}
					}
				}
			}
			JOINT rCollar
			{
				OFFSET -3.470700 6.669187 -0.816635 
				CHANNELS 3 Yrotation Zrotation Xrotation
				JOINT rShldr
				{
					OFFSET -3.198488 0.000000 0.000000 
					CHANNELS 3 Zrotation Yrotation Xrotation
					JOINT rForeArm
					{
						OFFSET -10.139888 0.000000 0.000000 
						CHANNELS 3 Yrotation Zrotation Xrotation
						JOINT rHand
						{
							OFFSET -8.370511 0.000000 0.000000 
							CHANNELS 3 Zrotation Yrotation Xrotation
							End Site
							{
								OFFSET -4.083176 0.000000 0.000000 
							}
						}
					}
				}
			}
		}
	}
	JOINT lThigh
	{
		OFFSET 5.308129 -1.633274 1.361059 
		CHANNELS 3 Xrotation Zrotation Yrotation
		JOINT lShin
		{
			OFFSET -2.041588 -20.007561 0.000000 
			CHANNELS 3 Xrotation Zrotation Yrotation
			JOINT lFoot
			{
				OFFSET 0.000000 -19.190928 -1.224953 
				CHANNELS 3 Xrotation Yrotation Zrotation
				End Site
				{
					OFFSET 0.000000 -2.449906 4.627600 
				}
			}
		}
	}
	JOINT rThigh
	{
		OFFSET -5.308129 -1.633274 1.361059 
		CHANNELS 3 Xrotation Zrotation Yrotation
		JOINT rShin
		{
			OFFSET 2.041588 -20.007561 0.000000 
			CHANNELS 3 Xrotation Zrotation Yrotation
			JOINT rFoot
			{
				OFFSET 0.000000 -19.190928 -1.224953 
				CHANNELS 3 Xrotation Yrotation Zrotation
				End Site
				{
					OFFSET 0.000000 -2.449906 4.627600 
				}
			}
		}
	}
}
MOTION
Frames: 8
Frame Time: 0.016667
-2.351612 52.489269 3.635690 -1.165587 -7.076267 5.559632 30.564909 7.188428 5.590647 4.577652 0.771172 -2.304802 -3.164170 1.112440 -0.089301 8.668971 -3.012626 -3.285949 -26.160219 -6.478234 -0.332916 -68.614120 5.490513 -18.651234 -51.352615 -5.000000 6.031913 -17.980824 -11.106635 -1.640055 12.460543 7.977999 -0.422338 67.557922 -8.035496 -22.455454 32.196327 5.000000 13.467357 5.174972 -21.361792 -11.174968 6.736632 11.023679 5.425739 19.584309 -5.645964 -2.250572 -26.373554 -2.974588 -8.392551 -19.528437 -2.685516 -5.008233 38.347515 9.996125 9.589174 -2.712694 -7.413704 0.239398 
-2.351362 52.021469 4.753783 -0.482511 -6.148677 5.942083 30.964516 6.322173 5.240153 4.555321 0.829709 -2.461041 -3.769666 0.672089 -0.062179 8.141792 -3.129436 -3.344987 -25.582472 -6.205166 -0.318841 -68.277313 4.699332 -17.315996 -53.154156 -5.000000 5.591440 -17.394688 -11.420161 -1.978853 12.858293 7.617095 -0.403669 68.138214 -8.590216 -23.453196 31.437851 5.000000 13.083447 5.788686 -20.800261 -10.011817 5.259011 10.149807 4.463866 24.030258 -5.833126 -2.870047 -28.655443 -1.852590 -6.803251 -22.516357 -3.779066 -3.955228 35.533272 9.989343 8.904151 -4.120546 -5.217501 -3.784537 
-2.348798 51.469326 5.875651 0.052772 -5.153964 6.343590 31.650311 5.476533 4.893349 4.474273 0.858929 -2.675867 -4.394542 0.175264 -0.016640 7.574939 -3.255471 -3.550840 -24.927305 -6.049126 -0.310794 -67.809723 3.891004 -16.020256 -55.063747 -5.000000 5.172174 -16.728775 -11.361939 -2.292409 13.373686 7.304932 -0.387503 68.687141 -9.152162 -24.474676 30.842283 5.000000 12.651253 6.437920 -20.348167 -8.966268 3.747545 9.038944 4.026972 28.906979 -5.433242 -3.228330 -31.133268 -0.823863 -5.882743 -25.375977 -4.891612 -3.082228 32.848724 9.989515 8.107916 -5.635462 -5.477070 -4.413874 
-2.343919 50.832848 7.001304 0.454043 -4.073018 6.774653 32.641163 4.640949 4.542560 4.325208 0.849070 -2.939663 -5.029350 -0.369840 0.036203 6.988525 -3.400394 -3.884019 -24.214306 -6.029621 -0.309789 -67.226181 3.057524 -14.758507 -57.076450 -5.000000 4.758640 -15.991706 -10.936133 -2.547176 14.026274 7.051262 -0.374349 69.187599 -9.721896 -25.520555 30.430037 5.000000 12.162071 7.092863 -20.002785 -8.030610 2.245299 7.665981 4.122123 34.244202 -4.478309 -3.168260 -33.830997 0.210597 -5.585744 -28.150942 -6.064080 -2.373912 30.327765 9.979324 7.209103 -7.141696 -8.223085 -1.768183 
-2.339041 50.196354 8.126946 0.860603 -3.003469 7.206772 33.646252 3.820338 4.200875 4.176733 0.829451 -3.193551 -5.674286 -0.903827 0.097240 6.404412 -3.545043 -4.226967 -23.511021 -6.000363 -0.308279 -66.657814 2.215043 -13.497637 -59.096851 -5.000000 4.360254 -15.264472 -10.502028 -2.808969 14.678920 6.797590 -0.361187 69.708191 -10.278247 -26.578243 30.010199 5.000000 11.677345 7.776226 -19.686357 -7.103376 0.741343 6.304331 4.264382 39.547413 -3.542180 -3.047980 -36.515354 1.180482 -5.250417 -30.940823 -7.205805 -1.613467 27.803806 9.977857 6.335192 -8.563951 -11.174335 0.731918 
-2.298156 49.351761 9.348251 1.164456 -1.655069 7.649481 34.659279 2.933485 3.685664 4.301408 0.809811 -3.506030 -6.192896 -1.436352 0.167927 5.621355 -3.728274 -4.590050 -22.800472 -6.240392 -0.329801 -65.919312 1.345428 -12.526184 -61.155975 -5.000000 3.972224 -15.040540 -9.982878 -2.812542 15.332272 6.829322 -0.353323 69.746986 -10.799746 -27.686043 29.950916 5.000000 11.911365 8.363046 -19.334007 -6.992728 0.194600 4.619737 3.775673 43.742981 -2.606124 -2.525061 -39.667881 2.275707 -5.429933 -33.737091 -8.593436 -1.327405 26.182741 9.992064 5.613008 -8.793719 -12.098040 1.434254 
-2.257271 48.507160 10.569556 1.477999 -0.319046 8.105561 35.687260 2.048797 3.139342 4.416148 0.799927 -3.798979 -6.712362 -1.957758 0.246794 4.840810 -3.920954 -4.943441 -22.098806 -6.484313 -0.342409 -65.200256 0.455382 -11.564771 -63.224068 -5.000000 3.590688 -14.817540 -9.451874 -2.804752 15.977049 6.868332 -0.355345 69.788795 -11.328440 -28.792578 29.899632 5.000000 12.151293 8.950183 -18.976721 -6.873576 -0.351526 2.936355 3.295232 47.957085 -1.719555 -1.924931 -42.849903 3.345665 -5.519788 -36.533871 -9.968998 -1.008076 24.552525 9.588443 4.933443 -9.044008 -12.986468 2.181189 
-2.198850 47.618725 11.886460 1.808041 0.889223 8.214017 36.618244 1.226639 2.813794 4.688968 0.770568 -3.984516 -7.213395 -2.398993 0.333256 3.936342 -4.114114 -5.170251 -21.486399 -6.933022 -0.366724 -64.473328 -0.369136 -10.889556 -65.221237 -5.000000 3.246192 -15.000239 -9.342738 -2.606521 16.309755 6.975607 -0.360904 69.563644 -11.606475 -29.540363 29.821217 5.000000 12.673186 9.618695 -18.575624 -7.277806 -0.009724 1.432692 2.800099 50.974541 -1.280906 -1.636318 -46.083710 4.498645 -5.186834 -39.430183 -10.995383 -0.396669 23.424095 9.100219 4.437308 -9.544817 -13.338022 2.605526 
